 <svg  version="1.0" xmlns="http://www.w3.org/2000/svg"  width="900.000000pt" height="864.000000pt" viewBox="0 0 900.000000 864.000000"  preserveAspectRatio="xMidYMid meet">  <g transform="translate(0.000000,864.000000) scale(0.100000,-0.100000)" fill="#000000" stroke="none"> <path d="M4270 7500 l-1335 -5 -9 -658 c-4 -362 -5 -661 -2 -664 3 -4 784 -7 1735 -7 951 -1 1731 -3 1733 -6 2 -3 0 -504 -5 -1115 -8 -994 -11 -1111 -25 -1122 -12 -10 -202 -13 -869 -13 -836 0 -854 0 -861 -19 -10 -28 -9 -1307 1 -1318 5 -4 353 -9 774 -10 640 -2 769 0 791 11 15 8 364 350 777 759 l749 745 8 1027 c6 764 5 1031 -3 1041 -9 12 -124 14 -671 14 l-659 0 2 664 c1 365 -1 669 -5 675 -5 8 -119 10 -399 9 -216 -2 -993 -5 -1727 -8z"/> <path d="M2209 6153 c-489 -3 -629 -6 -637 -16 -7 -8 -15 -552 -23 -1677 -6 -916 -15 -2016 -18 -2445 -3 -441 -2 -785 3 -793 7 -10 322 -12 1540 -10 l1531 3 0 665 0 665 -860 5 -860 5 1 530 c0 292 4 1100 9 1796 l8 1266 -24 6 c-13 4 -28 6 -34 4 -5 -1 -292 -3 -636 -4z"/> </g> </svg> 